<mxfile host="app.diagrams.net" modified="2023-11-16T08:55:59.210Z" agent="Mozilla/5.0 (Windows NT 10.0; Win64; x64) AppleWebKit/537.36 (KHTML, like Gecko) Chrome/119.0.0.0 Safari/537.36" etag="CSFkpvXPwcuL2NvGo8bP" version="22.1.2" type="device">
  <diagram name="Page-1" id="OWqxqyxM07DjtwKq2Kkb">
    <mxGraphModel dx="1434" dy="746" grid="1" gridSize="10" guides="1" tooltips="1" connect="1" arrows="1" fold="1" page="1" pageScale="1" pageWidth="827" pageHeight="1169" math="0" shadow="0">
      <root>
        <mxCell id="0" />
        <mxCell id="1" parent="0" />
        <mxCell id="7UAffC4WuhHCZF1xiGJ9-9" value="" style="rounded=0;whiteSpace=wrap;html=1;" vertex="1" parent="1">
          <mxGeometry y="0.7199999999999989" width="200" height="360.8" as="geometry" />
        </mxCell>
        <mxCell id="7UAffC4WuhHCZF1xiGJ9-12" value="" style="endArrow=none;html=1;rounded=0;exitX=0;exitY=0.898;exitDx=0;exitDy=0;exitPerimeter=0;entryX=1;entryY=0.898;entryDx=0;entryDy=0;entryPerimeter=0;" edge="1" parent="1">
          <mxGeometry width="50" height="50" relative="1" as="geometry">
            <mxPoint y="241.51999999999998" as="sourcePoint" />
            <mxPoint x="200" y="241.51999999999998" as="targetPoint" />
          </mxGeometry>
        </mxCell>
        <mxCell id="7UAffC4WuhHCZF1xiGJ9-13" value="" style="endArrow=none;html=1;rounded=0;exitX=0;exitY=0.898;exitDx=0;exitDy=0;exitPerimeter=0;entryX=1;entryY=0.898;entryDx=0;entryDy=0;entryPerimeter=0;" edge="1" parent="1">
          <mxGeometry width="50" height="50" relative="1" as="geometry">
            <mxPoint y="281.52" as="sourcePoint" />
            <mxPoint x="200" y="281.52" as="targetPoint" />
          </mxGeometry>
        </mxCell>
        <mxCell id="7UAffC4WuhHCZF1xiGJ9-14" value="" style="endArrow=none;html=1;rounded=0;exitX=0;exitY=0.898;exitDx=0;exitDy=0;exitPerimeter=0;entryX=1;entryY=0.898;entryDx=0;entryDy=0;entryPerimeter=0;" edge="1" parent="1">
          <mxGeometry width="50" height="50" relative="1" as="geometry">
            <mxPoint y="321.52" as="sourcePoint" />
            <mxPoint x="200" y="321.52" as="targetPoint" />
          </mxGeometry>
        </mxCell>
        <mxCell id="7UAffC4WuhHCZF1xiGJ9-15" value="Phy" style="text;html=1;strokeColor=none;fillColor=none;align=center;verticalAlign=middle;whiteSpace=wrap;rounded=0;" vertex="1" parent="1">
          <mxGeometry x="70" y="321.52" width="60" height="38.48" as="geometry" />
        </mxCell>
        <mxCell id="7UAffC4WuhHCZF1xiGJ9-16" value="MAC" style="text;html=1;strokeColor=none;fillColor=none;align=center;verticalAlign=middle;whiteSpace=wrap;rounded=0;" vertex="1" parent="1">
          <mxGeometry x="70" y="281.52" width="60" height="38.48" as="geometry" />
        </mxCell>
        <mxCell id="7UAffC4WuhHCZF1xiGJ9-17" value="RLC : Radio Link Control" style="text;html=1;strokeColor=none;fillColor=none;align=center;verticalAlign=middle;whiteSpace=wrap;rounded=0;" vertex="1" parent="1">
          <mxGeometry x="25" y="241.51999999999998" width="150" height="38.48" as="geometry" />
        </mxCell>
        <mxCell id="7UAffC4WuhHCZF1xiGJ9-18" value="+ Aloha" style="text;html=1;strokeColor=none;fillColor=none;align=center;verticalAlign=middle;whiteSpace=wrap;rounded=0;" vertex="1" parent="1">
          <mxGeometry x="130" y="285.76" width="70" height="30" as="geometry" />
        </mxCell>
        <mxCell id="7UAffC4WuhHCZF1xiGJ9-19" value="" style="endArrow=none;html=1;rounded=0;exitX=0;exitY=0.898;exitDx=0;exitDy=0;exitPerimeter=0;entryX=1;entryY=0.898;entryDx=0;entryDy=0;entryPerimeter=0;" edge="1" parent="1">
          <mxGeometry width="50" height="50" relative="1" as="geometry">
            <mxPoint y="121.52000000000001" as="sourcePoint" />
            <mxPoint x="200" y="121.52000000000001" as="targetPoint" />
          </mxGeometry>
        </mxCell>
        <mxCell id="7UAffC4WuhHCZF1xiGJ9-20" value="" style="endArrow=none;html=1;rounded=0;exitX=0.5;exitY=0;exitDx=0;exitDy=0;entryX=0.5;entryY=0;entryDx=0;entryDy=0;" edge="1" parent="1" source="7UAffC4WuhHCZF1xiGJ9-17" target="7UAffC4WuhHCZF1xiGJ9-9">
          <mxGeometry width="50" height="50" relative="1" as="geometry">
            <mxPoint x="310" y="231.51999999999998" as="sourcePoint" />
            <mxPoint x="100" y="121.52000000000001" as="targetPoint" />
          </mxGeometry>
        </mxCell>
        <mxCell id="7UAffC4WuhHCZF1xiGJ9-22" value="&lt;h1&gt;&lt;font style=&quot;font-size: 20px;&quot;&gt;Control&lt;/font&gt;&lt;/h1&gt;&lt;p&gt;RRC : Radio Resource Control&lt;/p&gt;" style="text;html=1;strokeColor=none;fillColor=none;spacing=5;spacingTop=-20;whiteSpace=wrap;overflow=hidden;rounded=0;" vertex="1" parent="1">
          <mxGeometry y="121.52000000000001" width="100" height="120" as="geometry" />
        </mxCell>
        <mxCell id="7UAffC4WuhHCZF1xiGJ9-23" value="&lt;h1 style=&quot;&quot;&gt;&lt;font style=&quot;font-size: 20px;&quot;&gt;Data&lt;/font&gt;&lt;/h1&gt;&lt;p style=&quot;&quot;&gt;PDCP : Packet Data Convergence Protocol&lt;/p&gt;" style="text;html=1;strokeColor=none;fillColor=none;spacing=5;spacingTop=-20;whiteSpace=wrap;overflow=hidden;rounded=0;align=left;" vertex="1" parent="1">
          <mxGeometry x="100" y="121.52000000000001" width="100" height="120" as="geometry" />
        </mxCell>
        <mxCell id="7UAffC4WuhHCZF1xiGJ9-28" value="" style="endArrow=none;html=1;rounded=0;" edge="1" parent="1">
          <mxGeometry width="50" height="50" relative="1" as="geometry">
            <mxPoint x="129" y="0.7199999999999989" as="sourcePoint" />
            <mxPoint x="129" y="121.52000000000001" as="targetPoint" />
          </mxGeometry>
        </mxCell>
        <mxCell id="7UAffC4WuhHCZF1xiGJ9-30" value="" style="endArrow=none;html=1;rounded=0;entryX=0.25;entryY=0;entryDx=0;entryDy=0;" edge="1" parent="1" target="7UAffC4WuhHCZF1xiGJ9-9">
          <mxGeometry width="50" height="50" relative="1" as="geometry">
            <mxPoint x="50" y="80.72" as="sourcePoint" />
            <mxPoint x="280" y="80.72" as="targetPoint" />
          </mxGeometry>
        </mxCell>
        <mxCell id="7UAffC4WuhHCZF1xiGJ9-34" value="" style="endArrow=none;html=1;rounded=0;" edge="1" parent="1">
          <mxGeometry width="50" height="50" relative="1" as="geometry">
            <mxPoint y="80.72" as="sourcePoint" />
            <mxPoint x="100" y="80.72" as="targetPoint" />
          </mxGeometry>
        </mxCell>
        <mxCell id="7UAffC4WuhHCZF1xiGJ9-37" value="" style="endArrow=none;html=1;rounded=0;exitX=0.125;exitY=0.001;exitDx=0;exitDy=0;exitPerimeter=0;" edge="1" parent="1" source="7UAffC4WuhHCZF1xiGJ9-9">
          <mxGeometry width="50" height="50" relative="1" as="geometry">
            <mxPoint x="25" y="20.72" as="sourcePoint" />
            <mxPoint x="25" y="80.72" as="targetPoint" />
          </mxGeometry>
        </mxCell>
        <mxCell id="7UAffC4WuhHCZF1xiGJ9-38" value="" style="endArrow=none;html=1;rounded=0;exitX=0.375;exitY=-0.002;exitDx=0;exitDy=0;exitPerimeter=0;" edge="1" parent="1" source="7UAffC4WuhHCZF1xiGJ9-9">
          <mxGeometry width="50" height="50" relative="1" as="geometry">
            <mxPoint x="75" y="-9.280000000000001" as="sourcePoint" />
            <mxPoint x="75" y="80.72" as="targetPoint" />
          </mxGeometry>
        </mxCell>
        <mxCell id="7UAffC4WuhHCZF1xiGJ9-44" value="" style="endArrow=none;html=1;rounded=0;" edge="1" parent="1">
          <mxGeometry width="50" height="50" relative="1" as="geometry">
            <mxPoint x="200" y="40.72" as="sourcePoint" />
            <mxPoint x="130" y="40.72" as="targetPoint" />
          </mxGeometry>
        </mxCell>
        <mxCell id="7UAffC4WuhHCZF1xiGJ9-45" value="" style="endArrow=none;html=1;rounded=0;" edge="1" parent="1">
          <mxGeometry width="50" height="50" relative="1" as="geometry">
            <mxPoint x="200" y="80.72" as="sourcePoint" />
            <mxPoint x="130" y="80.72" as="targetPoint" />
          </mxGeometry>
        </mxCell>
        <mxCell id="7UAffC4WuhHCZF1xiGJ9-46" value="EMM" style="text;html=1;strokeColor=none;fillColor=none;align=center;verticalAlign=middle;whiteSpace=wrap;rounded=0;" vertex="1" parent="1">
          <mxGeometry y="80" width="100" height="40" as="geometry" />
        </mxCell>
        <mxCell id="7UAffC4WuhHCZF1xiGJ9-48" value="IP" style="text;html=1;strokeColor=none;fillColor=none;align=center;verticalAlign=middle;whiteSpace=wrap;rounded=0;" vertex="1" parent="1">
          <mxGeometry x="130" y="80" width="70" height="40" as="geometry" />
        </mxCell>
        <mxCell id="7UAffC4WuhHCZF1xiGJ9-49" value="V&lt;br&gt;o&lt;br&gt;i&lt;br&gt;c&lt;br&gt;e" style="text;html=1;strokeColor=none;fillColor=none;align=center;verticalAlign=middle;whiteSpace=wrap;rounded=0;" vertex="1" parent="1">
          <mxGeometry x="100" width="30" height="120" as="geometry" />
        </mxCell>
        <mxCell id="7UAffC4WuhHCZF1xiGJ9-50" value="TCP / UDP" style="text;html=1;strokeColor=none;fillColor=none;align=center;verticalAlign=middle;whiteSpace=wrap;rounded=0;" vertex="1" parent="1">
          <mxGeometry x="130" y="40" width="70" height="40" as="geometry" />
        </mxCell>
        <mxCell id="7UAffC4WuhHCZF1xiGJ9-51" value="APP" style="text;html=1;strokeColor=none;fillColor=none;align=center;verticalAlign=middle;whiteSpace=wrap;rounded=0;" vertex="1" parent="1">
          <mxGeometry x="130" y="0.7199999999999989" width="70" height="40" as="geometry" />
        </mxCell>
        <mxCell id="7UAffC4WuhHCZF1xiGJ9-52" value="S&lt;br&gt;M&lt;br&gt;S" style="text;html=1;strokeColor=none;fillColor=none;align=center;verticalAlign=middle;whiteSpace=wrap;rounded=0;" vertex="1" parent="1">
          <mxGeometry width="20" height="80" as="geometry" />
        </mxCell>
        <mxCell id="7UAffC4WuhHCZF1xiGJ9-54" value="S&lt;br&gt;M" style="text;html=1;strokeColor=none;fillColor=none;align=center;verticalAlign=middle;whiteSpace=wrap;rounded=0;" vertex="1" parent="1">
          <mxGeometry x="25" width="20" height="80" as="geometry" />
        </mxCell>
        <mxCell id="7UAffC4WuhHCZF1xiGJ9-57" value="S&lt;br&gt;S" style="text;html=1;strokeColor=none;fillColor=none;align=center;verticalAlign=middle;whiteSpace=wrap;rounded=0;" vertex="1" parent="1">
          <mxGeometry x="50" width="20" height="80" as="geometry" />
        </mxCell>
        <mxCell id="7UAffC4WuhHCZF1xiGJ9-58" value="C&lt;br&gt;C" style="text;html=1;strokeColor=none;fillColor=none;align=center;verticalAlign=middle;whiteSpace=wrap;rounded=0;" vertex="1" parent="1">
          <mxGeometry x="80" y="0.7199999999999989" width="20" height="80" as="geometry" />
        </mxCell>
      </root>
    </mxGraphModel>
  </diagram>
</mxfile>
